<mxfile host="app.diagrams.net" modified="2024-03-15T07:40:33.893Z" agent="Mozilla/5.0 (Windows NT 10.0; Win64; x64) AppleWebKit/537.36 (KHTML, like Gecko) Chrome/120.0.0.0 YaBrowser/24.1.0.0 Safari/537.36" etag="lB4oMFRLVgMa9Q7NDGT9" version="24.0.5" type="device">
  <diagram name="Страница — 1" id="bSDUOCLuoS8Kt7qfTI38">
    <mxGraphModel dx="1674" dy="793" grid="1" gridSize="10" guides="1" tooltips="1" connect="1" arrows="1" fold="1" page="1" pageScale="1" pageWidth="827" pageHeight="1169" math="0" shadow="0">
      <root>
        <mxCell id="0" />
        <mxCell id="1" parent="0" />
        <mxCell id="LjQDeCS4wxQgznQoFdgZ-2" value="Создание мероприятия" style="text;strokeColor=none;align=center;fillColor=none;html=1;verticalAlign=middle;whiteSpace=wrap;rounded=0;" vertex="1" parent="1">
          <mxGeometry x="40" y="30" width="220" height="30" as="geometry" />
        </mxCell>
        <mxCell id="LjQDeCS4wxQgznQoFdgZ-8" value="" style="html=1;points=[[0,0,0,0,5],[0,1,0,0,-5],[1,0,0,0,5],[1,1,0,0,-5]];perimeter=orthogonalPerimeter;outlineConnect=0;targetShapes=umlLifeline;portConstraint=eastwest;newEdgeStyle={&quot;curved&quot;:0,&quot;rounded&quot;:0};fillColor=#BB87FF;" vertex="1" parent="1">
          <mxGeometry x="95" y="180" width="10" height="760" as="geometry" />
        </mxCell>
        <mxCell id="LjQDeCS4wxQgznQoFdgZ-9" value="" style="endArrow=none;dashed=1;html=1;rounded=0;" edge="1" parent="1" target="LjQDeCS4wxQgznQoFdgZ-8">
          <mxGeometry width="50" height="50" relative="1" as="geometry">
            <mxPoint x="100" y="160" as="sourcePoint" />
            <mxPoint x="300" y="230" as="targetPoint" />
          </mxGeometry>
        </mxCell>
        <mxCell id="LjQDeCS4wxQgznQoFdgZ-10" value="" style="html=1;points=[[0,0,0,0,5],[0,1,0,0,-5],[1,0,0,0,5],[1,1,0,0,-5]];perimeter=orthogonalPerimeter;outlineConnect=0;targetShapes=umlLifeline;portConstraint=eastwest;newEdgeStyle={&quot;curved&quot;:0,&quot;rounded&quot;:0};fillColor=#4A8CFF;" vertex="1" parent="1">
          <mxGeometry x="409" y="200" width="10" height="270" as="geometry" />
        </mxCell>
        <mxCell id="LjQDeCS4wxQgznQoFdgZ-11" value="" style="html=1;points=[[0,0,0,0,5],[0,1,0,0,-5],[1,0,0,0,5],[1,1,0,0,-5]];perimeter=orthogonalPerimeter;outlineConnect=0;targetShapes=umlLifeline;portConstraint=eastwest;newEdgeStyle={&quot;curved&quot;:0,&quot;rounded&quot;:0};fillColor=#CC6600;" vertex="1" parent="1">
          <mxGeometry x="650" y="565" width="10" height="45" as="geometry" />
        </mxCell>
        <mxCell id="LjQDeCS4wxQgznQoFdgZ-12" value="" style="endArrow=none;dashed=1;html=1;rounded=0;fillColor=#CC6600;strokeColor=#CC6600;" edge="1" parent="1" source="LjQDeCS4wxQgznQoFdgZ-11" target="LjQDeCS4wxQgznQoFdgZ-21">
          <mxGeometry width="50" height="50" relative="1" as="geometry">
            <mxPoint x="480" y="240" as="sourcePoint" />
            <mxPoint x="560" y="160" as="targetPoint" />
          </mxGeometry>
        </mxCell>
        <mxCell id="LjQDeCS4wxQgznQoFdgZ-13" value="" style="endArrow=none;dashed=1;html=1;rounded=0;entryX=0.5;entryY=-0.003;entryDx=0;entryDy=0;entryPerimeter=0;exitX=0.5;exitY=1;exitDx=0;exitDy=0;" edge="1" parent="1" source="LjQDeCS4wxQgznQoFdgZ-20" target="LjQDeCS4wxQgznQoFdgZ-10">
          <mxGeometry width="50" height="50" relative="1" as="geometry">
            <mxPoint x="330" y="160" as="sourcePoint" />
            <mxPoint x="250" y="280" as="targetPoint" />
          </mxGeometry>
        </mxCell>
        <mxCell id="LjQDeCS4wxQgznQoFdgZ-16" value="Клиент" style="shape=umlActor;verticalLabelPosition=bottom;verticalAlign=top;html=1;" vertex="1" parent="1">
          <mxGeometry x="85" y="80" width="30" height="60" as="geometry" />
        </mxCell>
        <mxCell id="LjQDeCS4wxQgznQoFdgZ-20" value="Окно создания&lt;div&gt;мероприятия&lt;/div&gt;" style="html=1;whiteSpace=wrap;" vertex="1" parent="1">
          <mxGeometry x="359" y="110" width="110" height="50" as="geometry" />
        </mxCell>
        <mxCell id="LjQDeCS4wxQgznQoFdgZ-21" value="База данных" style="html=1;whiteSpace=wrap;" vertex="1" parent="1">
          <mxGeometry x="600" y="110" width="110" height="50" as="geometry" />
        </mxCell>
        <mxCell id="LjQDeCS4wxQgznQoFdgZ-31" value="1. Нажатие кнопки &quot;Создать&quot;" style="html=1;verticalAlign=bottom;endArrow=block;curved=0;rounded=0;" edge="1" parent="1" target="LjQDeCS4wxQgznQoFdgZ-10">
          <mxGeometry width="80" relative="1" as="geometry">
            <mxPoint x="105" y="200" as="sourcePoint" />
            <mxPoint x="260" y="200" as="targetPoint" />
          </mxGeometry>
        </mxCell>
        <mxCell id="LjQDeCS4wxQgznQoFdgZ-35" value="3. Ввод данных мероприятия" style="html=1;verticalAlign=bottom;endArrow=block;curved=0;rounded=0;" edge="1" parent="1">
          <mxGeometry width="80" relative="1" as="geometry">
            <mxPoint x="105" y="280" as="sourcePoint" />
            <mxPoint x="408.9999999999998" y="280" as="targetPoint" />
            <mxPoint as="offset" />
          </mxGeometry>
        </mxCell>
        <mxCell id="LjQDeCS4wxQgznQoFdgZ-36" value="2. Открытие окна &quot;Создание мероприятия&quot;" style="html=1;verticalAlign=bottom;endArrow=open;dashed=1;endSize=8;curved=0;rounded=0;" edge="1" parent="1" source="LjQDeCS4wxQgznQoFdgZ-10">
          <mxGeometry relative="1" as="geometry">
            <mxPoint x="325" y="230" as="sourcePoint" />
            <mxPoint x="105" y="230" as="targetPoint" />
          </mxGeometry>
        </mxCell>
        <mxCell id="LjQDeCS4wxQgznQoFdgZ-37" value="приглашенный&lt;div&gt;участник&lt;/div&gt;" style="shape=umlActor;verticalLabelPosition=bottom;verticalAlign=top;html=1;" vertex="1" parent="1">
          <mxGeometry x="840" y="80" width="30" height="60" as="geometry" />
        </mxCell>
        <mxCell id="LjQDeCS4wxQgznQoFdgZ-38" value="" style="html=1;points=[[0,0,0,0,5],[0,1,0,0,-5],[1,0,0,0,5],[1,1,0,0,-5]];perimeter=orthogonalPerimeter;outlineConnect=0;targetShapes=umlLifeline;portConstraint=eastwest;newEdgeStyle={&quot;curved&quot;:0,&quot;rounded&quot;:0};fillColor=#61FFA5;" vertex="1" parent="1">
          <mxGeometry x="260" y="910" width="10" height="30" as="geometry" />
        </mxCell>
        <mxCell id="LjQDeCS4wxQgznQoFdgZ-39" value="" style="endArrow=none;dashed=1;html=1;rounded=0;" edge="1" parent="1" source="LjQDeCS4wxQgznQoFdgZ-38" target="LjQDeCS4wxQgznQoFdgZ-40">
          <mxGeometry width="50" height="50" relative="1" as="geometry">
            <mxPoint x="740" y="240" as="sourcePoint" />
            <mxPoint x="820" y="160" as="targetPoint" />
          </mxGeometry>
        </mxCell>
        <mxCell id="LjQDeCS4wxQgznQoFdgZ-40" value="Окно расписания&lt;div&gt;любой вариации&lt;/div&gt;" style="html=1;whiteSpace=wrap;" vertex="1" parent="1">
          <mxGeometry x="210" y="810" width="110" height="50" as="geometry" />
        </mxCell>
        <mxCell id="LjQDeCS4wxQgznQoFdgZ-50" value="4. Валидация" style="html=1;verticalAlign=bottom;endArrow=block;rounded=0;edgeStyle=elbowEdgeStyle;" edge="1" parent="1">
          <mxGeometry x="0.5303" width="80" relative="1" as="geometry">
            <mxPoint x="419" y="280" as="sourcePoint" />
            <mxPoint x="419" y="310" as="targetPoint" />
            <mxPoint as="offset" />
            <Array as="points">
              <mxPoint x="470" y="290" />
            </Array>
          </mxGeometry>
        </mxCell>
        <mxCell id="LjQDeCS4wxQgznQoFdgZ-51" value="5. Ответ" style="html=1;verticalAlign=bottom;endArrow=open;dashed=1;endSize=8;curved=0;rounded=0;" edge="1" parent="1">
          <mxGeometry relative="1" as="geometry">
            <mxPoint x="409" y="310" as="sourcePoint" />
            <mxPoint x="104" y="310" as="targetPoint" />
          </mxGeometry>
        </mxCell>
        <mxCell id="LjQDeCS4wxQgznQoFdgZ-53" value="Пока&lt;div&gt;не валидно&lt;/div&gt;" style="text;html=1;align=left;verticalAlign=middle;resizable=0;points=[];autosize=1;strokeColor=none;fillColor=none;" vertex="1" parent="1">
          <mxGeometry x="15" y="280" width="90" height="40" as="geometry" />
        </mxCell>
        <mxCell id="LjQDeCS4wxQgznQoFdgZ-52" value="Цикл" style="shape=umlFrame;whiteSpace=wrap;html=1;pointerEvents=0;fillColor=#4A8CFF;strokeColor=#4A8CFF;" vertex="1" parent="1">
          <mxGeometry x="10" y="250" width="470" height="80" as="geometry" />
        </mxCell>
        <mxCell id="LjQDeCS4wxQgznQoFdgZ-54" value="&amp;nbsp;12. True Поиск участника" style="html=1;verticalAlign=bottom;endArrow=block;rounded=0;edgeStyle=elbowEdgeStyle;" edge="1" parent="1" target="LjQDeCS4wxQgznQoFdgZ-11">
          <mxGeometry x="0.0036" width="80" relative="1" as="geometry">
            <mxPoint x="270" y="550" as="sourcePoint" />
            <mxPoint x="550" y="550" as="targetPoint" />
            <mxPoint as="offset" />
            <Array as="points">
              <mxPoint x="310" y="580" />
            </Array>
          </mxGeometry>
        </mxCell>
        <mxCell id="LjQDeCS4wxQgznQoFdgZ-56" value="Окошко добавления участника" style="html=1;whiteSpace=wrap;" vertex="1" parent="1">
          <mxGeometry x="210" y="390" width="110" height="50" as="geometry" />
        </mxCell>
        <mxCell id="LjQDeCS4wxQgznQoFdgZ-57" value="" style="endArrow=none;dashed=1;html=1;rounded=0;" edge="1" parent="1" source="LjQDeCS4wxQgznQoFdgZ-56" target="LjQDeCS4wxQgznQoFdgZ-58">
          <mxGeometry width="50" height="50" relative="1" as="geometry">
            <mxPoint x="220" y="540" as="sourcePoint" />
            <mxPoint x="215" y="460" as="targetPoint" />
          </mxGeometry>
        </mxCell>
        <mxCell id="LjQDeCS4wxQgznQoFdgZ-58" value="" style="html=1;points=[[0,0,0,0,5],[0,1,0,0,-5],[1,0,0,0,5],[1,1,0,0,-5]];perimeter=orthogonalPerimeter;outlineConnect=0;targetShapes=umlLifeline;portConstraint=eastwest;newEdgeStyle={&quot;curved&quot;:0,&quot;rounded&quot;:0};fillColor=#FF6666;" vertex="1" parent="1">
          <mxGeometry x="260" y="460" width="10" height="250" as="geometry" />
        </mxCell>
        <mxCell id="LjQDeCS4wxQgznQoFdgZ-61" value="&lt;div&gt;7. Нажатие на кнопку&lt;/div&gt;&lt;div&gt;&quot;добавление участника&quot;&lt;/div&gt;" style="html=1;verticalAlign=bottom;endArrow=open;dashed=1;endSize=8;curved=0;rounded=0;entryX=1;entryY=0;entryDx=0;entryDy=5;entryPerimeter=0;" edge="1" parent="1" source="LjQDeCS4wxQgznQoFdgZ-10" target="LjQDeCS4wxQgznQoFdgZ-58">
          <mxGeometry relative="1" as="geometry">
            <mxPoint x="320" y="460" as="sourcePoint" />
            <mxPoint x="220" y="460" as="targetPoint" />
          </mxGeometry>
        </mxCell>
        <mxCell id="LjQDeCS4wxQgznQoFdgZ-63" value="8. Отобразить" style="html=1;verticalAlign=bottom;endArrow=open;dashed=1;endSize=8;curved=0;rounded=0;" edge="1" parent="1" source="LjQDeCS4wxQgznQoFdgZ-58">
          <mxGeometry relative="1" as="geometry">
            <mxPoint x="210" y="480" as="sourcePoint" />
            <mxPoint x="105" y="480" as="targetPoint" />
            <Array as="points">
              <mxPoint x="160" y="480" />
            </Array>
          </mxGeometry>
        </mxCell>
        <mxCell id="LjQDeCS4wxQgznQoFdgZ-64" value="9. Ввод данных участника" style="html=1;verticalAlign=bottom;endArrow=block;curved=0;rounded=0;" edge="1" parent="1">
          <mxGeometry width="80" relative="1" as="geometry">
            <mxPoint x="115" y="510" as="sourcePoint" />
            <mxPoint x="260" y="510" as="targetPoint" />
            <mxPoint as="offset" />
          </mxGeometry>
        </mxCell>
        <mxCell id="LjQDeCS4wxQgznQoFdgZ-65" value="10. Валидация" style="html=1;verticalAlign=bottom;endArrow=block;rounded=0;edgeStyle=elbowEdgeStyle;" edge="1" parent="1">
          <mxGeometry x="0.4483" width="80" relative="1" as="geometry">
            <mxPoint x="280" y="510" as="sourcePoint" />
            <mxPoint x="270" y="540" as="targetPoint" />
            <mxPoint as="offset" />
            <Array as="points">
              <mxPoint x="330" y="520" />
            </Array>
          </mxGeometry>
        </mxCell>
        <mxCell id="LjQDeCS4wxQgznQoFdgZ-67" value="11. False" style="endArrow=open;endSize=12;dashed=1;html=1;rounded=0;edgeStyle=elbowEdgeStyle;" edge="1" parent="1">
          <mxGeometry width="160" relative="1" as="geometry">
            <mxPoint x="260" y="550" as="sourcePoint" />
            <mxPoint x="110" y="580" as="targetPoint" />
            <Array as="points">
              <mxPoint x="190" y="560" />
            </Array>
          </mxGeometry>
        </mxCell>
        <mxCell id="LjQDeCS4wxQgznQoFdgZ-70" value="6. Добавить участника" style="html=1;verticalAlign=bottom;endArrow=block;curved=0;rounded=0;" edge="1" parent="1" target="LjQDeCS4wxQgznQoFdgZ-10">
          <mxGeometry width="80" relative="1" as="geometry">
            <mxPoint x="115" y="380" as="sourcePoint" />
            <mxPoint x="335" y="380" as="targetPoint" />
            <mxPoint as="offset" />
          </mxGeometry>
        </mxCell>
        <mxCell id="LjQDeCS4wxQgznQoFdgZ-72" value="13. Ответ" style="html=1;verticalAlign=bottom;endArrow=open;dashed=1;endSize=8;curved=0;rounded=0;" edge="1" parent="1">
          <mxGeometry relative="1" as="geometry">
            <mxPoint x="650" y="610" as="sourcePoint" />
            <mxPoint x="110" y="610" as="targetPoint" />
          </mxGeometry>
        </mxCell>
        <mxCell id="LjQDeCS4wxQgznQoFdgZ-77" value="Цикл" style="shape=umlFrame;whiteSpace=wrap;html=1;pointerEvents=0;fillColor=#33FF00;strokeColor=#66FF00;" vertex="1" parent="1">
          <mxGeometry x="20" y="490" width="660" height="140" as="geometry" />
        </mxCell>
        <mxCell id="LjQDeCS4wxQgznQoFdgZ-78" value="Пока&lt;div&gt;не валидно&lt;/div&gt;&lt;div&gt;или участник&lt;/div&gt;&lt;div&gt;не найден&amp;nbsp;&lt;/div&gt;" style="text;html=1;align=left;verticalAlign=middle;resizable=0;points=[];autosize=1;strokeColor=none;fillColor=none;" vertex="1" parent="1">
          <mxGeometry x="20" y="525" width="100" height="70" as="geometry" />
        </mxCell>
        <mxCell id="LjQDeCS4wxQgznQoFdgZ-79" value="" style="html=1;verticalAlign=bottom;endArrow=block;curved=0;rounded=0;" edge="1" parent="1" target="LjQDeCS4wxQgznQoFdgZ-58">
          <mxGeometry width="80" relative="1" as="geometry">
            <mxPoint x="105" y="670" as="sourcePoint" />
            <mxPoint x="210" y="670" as="targetPoint" />
            <mxPoint as="offset" />
          </mxGeometry>
        </mxCell>
        <mxCell id="LjQDeCS4wxQgznQoFdgZ-81" value="14. Нажатие на кнопку&lt;div&gt;&quot;Применить&quot;&lt;/div&gt;" style="edgeLabel;html=1;align=center;verticalAlign=middle;resizable=0;points=[];" vertex="1" connectable="0" parent="LjQDeCS4wxQgznQoFdgZ-79">
          <mxGeometry x="0.0514" y="1" relative="1" as="geometry">
            <mxPoint y="-19" as="offset" />
          </mxGeometry>
        </mxCell>
        <mxCell id="LjQDeCS4wxQgznQoFdgZ-82" value="Цикл" style="shape=umlFrame;whiteSpace=wrap;html=1;pointerEvents=0;borderColor=red;fillColor=#FFC0AD;strokeColor=#FFC0AD;" vertex="1" parent="1">
          <mxGeometry x="10" y="350" width="690" height="400" as="geometry" />
        </mxCell>
        <mxCell id="LjQDeCS4wxQgznQoFdgZ-85" value="Пока не все&lt;div&gt;участники&lt;/div&gt;&lt;div&gt;добавлены&lt;/div&gt;" style="text;html=1;align=left;verticalAlign=middle;resizable=0;points=[];autosize=1;strokeColor=none;fillColor=none;" vertex="1" parent="1">
          <mxGeometry x="10" y="385" width="90" height="60" as="geometry" />
        </mxCell>
        <mxCell id="LjQDeCS4wxQgznQoFdgZ-86" value="" style="endArrow=none;dashed=1;html=1;rounded=0;entryX=0;entryY=1;entryDx=0;entryDy=-5;entryPerimeter=0;fillColor=#4A8CFF;strokeColor=#4A8CFF;" edge="1" parent="1">
          <mxGeometry width="50" height="50" relative="1" as="geometry">
            <mxPoint x="414" y="700" as="sourcePoint" />
            <mxPoint x="414" y="465" as="targetPoint" />
          </mxGeometry>
        </mxCell>
        <mxCell id="LjQDeCS4wxQgznQoFdgZ-87" value="" style="html=1;points=[[0,0,0,0,5],[0,1,0,0,-5],[1,0,0,0,5],[1,1,0,0,-5]];perimeter=orthogonalPerimeter;outlineConnect=0;targetShapes=umlLifeline;portConstraint=eastwest;newEdgeStyle={&quot;curved&quot;:0,&quot;rounded&quot;:0};fillColor=#4A8CFF;" vertex="1" parent="1">
          <mxGeometry x="409" y="700" width="10" height="220" as="geometry" />
        </mxCell>
        <mxCell id="LjQDeCS4wxQgznQoFdgZ-90" value="" style="html=1;verticalAlign=bottom;endArrow=block;curved=0;rounded=0;exitX=1;exitY=1;exitDx=0;exitDy=-5;exitPerimeter=0;" edge="1" parent="1" source="LjQDeCS4wxQgznQoFdgZ-58" target="LjQDeCS4wxQgznQoFdgZ-87">
          <mxGeometry width="80" relative="1" as="geometry">
            <mxPoint x="210" y="719.6" as="sourcePoint" />
            <mxPoint x="320" y="705" as="targetPoint" />
            <mxPoint as="offset" />
          </mxGeometry>
        </mxCell>
        <mxCell id="LjQDeCS4wxQgznQoFdgZ-91" value="15. Отправка данных&lt;div&gt;участника&lt;/div&gt;" style="edgeLabel;html=1;align=center;verticalAlign=middle;resizable=0;points=[];" vertex="1" connectable="0" parent="LjQDeCS4wxQgznQoFdgZ-90">
          <mxGeometry x="0.0514" y="1" relative="1" as="geometry">
            <mxPoint y="-19" as="offset" />
          </mxGeometry>
        </mxCell>
        <mxCell id="LjQDeCS4wxQgznQoFdgZ-92" value="" style="html=1;verticalAlign=bottom;endArrow=block;curved=0;rounded=0;exitX=0.5;exitY=0.949;exitDx=0;exitDy=0;exitPerimeter=0;" edge="1" parent="1" target="LjQDeCS4wxQgznQoFdgZ-87">
          <mxGeometry width="80" relative="1" as="geometry">
            <mxPoint x="105" y="789.9999999999999" as="sourcePoint" />
            <mxPoint x="320" y="790" as="targetPoint" />
            <mxPoint as="offset" />
          </mxGeometry>
        </mxCell>
        <mxCell id="LjQDeCS4wxQgznQoFdgZ-93" value="17. Нажатие на кнопку&lt;div&gt;&quot;Создать&quot;&lt;/div&gt;" style="edgeLabel;html=1;align=center;verticalAlign=middle;resizable=0;points=[];" vertex="1" connectable="0" parent="LjQDeCS4wxQgznQoFdgZ-92">
          <mxGeometry x="0.0514" y="1" relative="1" as="geometry">
            <mxPoint y="-19" as="offset" />
          </mxGeometry>
        </mxCell>
        <mxCell id="LjQDeCS4wxQgznQoFdgZ-94" value="" style="endArrow=none;dashed=1;html=1;rounded=0;fillColor=#CC6600;strokeColor=#CC6600;" edge="1" parent="1" source="LjQDeCS4wxQgznQoFdgZ-95">
          <mxGeometry width="50" height="50" relative="1" as="geometry">
            <mxPoint x="570" y="820" as="sourcePoint" />
            <mxPoint x="655" y="610" as="targetPoint" />
          </mxGeometry>
        </mxCell>
        <mxCell id="LjQDeCS4wxQgznQoFdgZ-95" value="" style="html=1;points=[[0,0,0,0,5],[0,1,0,0,-5],[1,0,0,0,5],[1,1,0,0,-5]];perimeter=orthogonalPerimeter;outlineConnect=0;targetShapes=umlLifeline;portConstraint=eastwest;newEdgeStyle={&quot;curved&quot;:0,&quot;rounded&quot;:0};fillColor=#CC6600;" vertex="1" parent="1">
          <mxGeometry x="650" y="810" width="10" height="20" as="geometry" />
        </mxCell>
        <mxCell id="LjQDeCS4wxQgznQoFdgZ-96" value="" style="html=1;verticalAlign=bottom;endArrow=block;curved=0;rounded=0;" edge="1" parent="1" target="LjQDeCS4wxQgznQoFdgZ-95">
          <mxGeometry width="80" relative="1" as="geometry">
            <mxPoint x="420" y="830" as="sourcePoint" />
            <mxPoint x="570" y="830" as="targetPoint" />
            <mxPoint as="offset" />
          </mxGeometry>
        </mxCell>
        <mxCell id="LjQDeCS4wxQgznQoFdgZ-97" value="18. Сохранить данные мероприятия" style="edgeLabel;html=1;align=center;verticalAlign=middle;resizable=0;points=[];" vertex="1" connectable="0" parent="LjQDeCS4wxQgznQoFdgZ-96">
          <mxGeometry x="0.0514" y="1" relative="1" as="geometry">
            <mxPoint y="-19" as="offset" />
          </mxGeometry>
        </mxCell>
        <mxCell id="LjQDeCS4wxQgznQoFdgZ-98" value="" style="html=1;verticalAlign=bottom;endArrow=block;curved=0;rounded=0;entryX=1;entryY=0;entryDx=0;entryDy=5;entryPerimeter=0;exitX=0;exitY=1;exitDx=0;exitDy=-5;exitPerimeter=0;" edge="1" parent="1" source="LjQDeCS4wxQgznQoFdgZ-87" target="LjQDeCS4wxQgznQoFdgZ-38">
          <mxGeometry width="80" relative="1" as="geometry">
            <mxPoint x="320" y="890" as="sourcePoint" />
            <mxPoint x="830" y="860" as="targetPoint" />
            <mxPoint as="offset" />
          </mxGeometry>
        </mxCell>
        <mxCell id="LjQDeCS4wxQgznQoFdgZ-99" value="20. Вызов окна&lt;div&gt;расписания&lt;/div&gt;" style="edgeLabel;html=1;align=center;verticalAlign=middle;resizable=0;points=[];" vertex="1" connectable="0" parent="LjQDeCS4wxQgznQoFdgZ-98">
          <mxGeometry x="0.0514" y="1" relative="1" as="geometry">
            <mxPoint y="-19" as="offset" />
          </mxGeometry>
        </mxCell>
        <mxCell id="LjQDeCS4wxQgznQoFdgZ-100" value="16. Обновление данных" style="html=1;verticalAlign=bottom;endArrow=open;dashed=1;endSize=8;curved=0;rounded=0;" edge="1" parent="1" source="LjQDeCS4wxQgznQoFdgZ-87">
          <mxGeometry relative="1" as="geometry">
            <mxPoint x="320" y="730" as="sourcePoint" />
            <mxPoint x="110" y="730" as="targetPoint" />
          </mxGeometry>
        </mxCell>
        <mxCell id="LjQDeCS4wxQgznQoFdgZ-102" value="21. Отображение&lt;div&gt;расписания&lt;/div&gt;" style="html=1;verticalAlign=bottom;endArrow=open;dashed=1;endSize=8;curved=0;rounded=0;" edge="1" parent="1" source="LjQDeCS4wxQgznQoFdgZ-38">
          <mxGeometry relative="1" as="geometry">
            <mxPoint x="210" y="940" as="sourcePoint" />
            <mxPoint x="105" y="940" as="targetPoint" />
          </mxGeometry>
        </mxCell>
        <mxCell id="LjQDeCS4wxQgznQoFdgZ-105" value="" style="html=1;verticalAlign=bottom;endArrow=block;curved=0;rounded=0;exitX=0.003;exitY=0.678;exitDx=0;exitDy=0;exitPerimeter=0;" edge="1" parent="1" source="LjQDeCS4wxQgznQoFdgZ-107" target="LjQDeCS4wxQgznQoFdgZ-109">
          <mxGeometry width="80" relative="1" as="geometry">
            <mxPoint x="430" y="880" as="sourcePoint" />
            <mxPoint x="690" y="870" as="targetPoint" />
            <mxPoint as="offset" />
          </mxGeometry>
        </mxCell>
        <mxCell id="LjQDeCS4wxQgznQoFdgZ-106" value="19. Отправка сообщения" style="edgeLabel;html=1;align=center;verticalAlign=middle;resizable=0;points=[];" vertex="1" connectable="0" parent="LjQDeCS4wxQgznQoFdgZ-105">
          <mxGeometry x="0.0514" y="1" relative="1" as="geometry">
            <mxPoint x="123" y="-9" as="offset" />
          </mxGeometry>
        </mxCell>
        <mxCell id="LjQDeCS4wxQgznQoFdgZ-107" value="Цикл" style="shape=umlFrame;whiteSpace=wrap;html=1;pointerEvents=0;" vertex="1" parent="1">
          <mxGeometry x="420" y="840" width="450" height="60" as="geometry" />
        </mxCell>
        <mxCell id="LjQDeCS4wxQgznQoFdgZ-109" value="" style="html=1;points=[[0,0,0,0,5],[0,1,0,0,-5],[1,0,0,0,5],[1,1,0,0,-5]];perimeter=orthogonalPerimeter;outlineConnect=0;targetShapes=umlLifeline;portConstraint=eastwest;newEdgeStyle={&quot;curved&quot;:0,&quot;rounded&quot;:0};fillColor=#CF0FFF;" vertex="1" parent="1">
          <mxGeometry x="850" y="870" width="10" height="10" as="geometry" />
        </mxCell>
        <mxCell id="LjQDeCS4wxQgznQoFdgZ-112" value="" style="endArrow=none;dashed=1;html=1;rounded=0;fillColor=#CF0FFF;strokeColor=#CF0FFF;" edge="1" parent="1" target="LjQDeCS4wxQgznQoFdgZ-109">
          <mxGeometry width="50" height="50" relative="1" as="geometry">
            <mxPoint x="860" y="180" as="sourcePoint" />
            <mxPoint x="345" y="485" as="targetPoint" />
          </mxGeometry>
        </mxCell>
        <mxCell id="LjQDeCS4wxQgznQoFdgZ-113" value="Пока не&amp;nbsp;&lt;span style=&quot;background-color: initial;&quot;&gt;все&amp;nbsp;&lt;/span&gt;&lt;span style=&quot;background-color: initial;&quot;&gt;сообщения&amp;nbsp;&lt;/span&gt;&lt;span style=&quot;background-color: initial;&quot;&gt;отправлены&lt;/span&gt;" style="text;html=1;align=left;verticalAlign=middle;resizable=0;points=[];autosize=1;strokeColor=none;fillColor=none;" vertex="1" parent="1">
          <mxGeometry x="480" y="840" width="230" height="30" as="geometry" />
        </mxCell>
      </root>
    </mxGraphModel>
  </diagram>
</mxfile>
